<svg id="Layer_1" xmlns="http://www.w3.org/2000/svg" xmlns:xlink="http://www.w3.org/1999/xlink" viewBox="0 0 138.2 38.6"><style>.st0{clip-path:url(#SVGID_2_)}.st0,.st1{fill:#fff}</style><defs><path id="SVGID_1_" d="M0 0h138.2v38.6H0z"/></defs><clipPath id="SVGID_2_"><use xlink:href="#SVGID_1_" overflow="visible"/></clipPath><path class="st0" d="M24 33.4c-2.6 1-4.4 1.4-4.4 1.4-.2-.1-.3-.3-.4-.4-.3-.3-.4-.5-.4-.5s2.4-.6 4.7-1.4c2.5-.9 5-2.5 5-2.5s.1.2.1.5.1.5.1.5-1.9 1.4-4.7 2.4zm-7.2-10.2c-6.4 1.7-10.1.8-10.1.8l-.2-1.8c0-.5-.1-1.5-.1-1.5s3.9.8 9.4-.6c6.2-1.6 9.3-4.9 9.3-4.9s.6.8 1 1.2c.3.5 1.1 1.6 1.1 1.6s-3.9 3.6-10.4 5.2zm-9.6-9.3c.1-.6.3-1.1.3-1.1s1.3.2 2.7.1c1.4-.1 2.9-.5 2.9-.5l.7 2.6s-1.7.6-3.6.7c-2 .1-3.3-.2-3.3-.2s.2-1.1.3-1.6zm21.3-5.5c.1-.4.2-.9.2-.9s1.1.8 1.7 1.3c.6.5 1.4 1.4 1.4 1.4s-.1.6-.2 1c-.1.3-.1.5-.3.9 0 0-.9-.9-1.6-1.5-.6-.6-1.6-1.3-1.6-1.3s.3-.5.4-.9zm7.3 6.1c-.6-2.7-1.1-3.6-1.1-3.6s1.3 6.8-4.9 11.9c-.3-.8-.7-1.7-1.2-2.5-.4-.8-.9-1.5-1.4-2.3 2.4-2.1 3.5-4.3 4.1-5.8.9 1 1.2 1.6 1.2 1.6s.3-.2.6-1.2c.7-2.7-.2-4.8-.2-4.8s-.4-.7-1.9-2.3c-2-2.1-4.3-3.3-4.3-3.3s2.3 2.2 2 5v.3c-.1-.1-.3-.2-.4-.3-3.3-2-5.8-2.4-5.8-2.4s-.4 3.7-6.6 6.5c-1 .4-2 .8-2.8 1l-.7-2.7s-1.6.5-3.3.5c-1.5 0-3.7-.1-3.8-2.6-.1-2 2-4.1 2-4.1s-1.4 1-2.5 2.2C3.4 7.1 2.2 9.4 2.2 9.4s-.4.6-.2 1.7c.1.8.8 2.7 2.8 3.7.7.3 1.4.6 2.1.7-.2 1.4-.5 3.1-.4 4.8v.3c-1.4-.2-2.5-.6-3.3-1.1C.6 18 .3 14.8.3 14.8s-.8 4.8.7 9c1.1 3.1 2.9 5.4 2.9 5.4s2.9 2.1 7.2 2.2c.9 0 2.9.3 6-.3 0-.1-.3-.6-.7-1.4-.1-.2-.2-.7-.3-.7.1 0 3.5-.6 7-2.2 4.4-2 6.7-4.1 6.7-4.1s.1.3.4.9c.2.6.5 1.3.5 1.3s-2.7 2.4-6 3.9c-4.1 1.8-7.3 2.4-7.5 2.4.1.2.2.3.3.5.6 1 1.1 1.7 1.4 2.2-.6.1-1.3.3-2 .3-5.2.7-8.8-1-8.8-1s5.1 3.4 11 3.1c5.2-.3 9.2-3.1 9.4-3.2.1-.1.5-.3.5-.3v-1.7c2.4-1.7 4.5-3.9 5.4-5.7 1.4-3.1 2.1-7.5 1.4-10.9z"/><path class="st0" d="M19.1 2.5s1.4-.1 2-.1c1.7 0 3 .1 3 .1s-.4-.8-2.4-1.6c-.9-.5-2.6-.9-4-.9s-3.8.3-6.2 1.2c-1.3.5-2 .9-2 .9s.3-.1.7-.2c.4-.1 1.3-.5 3.4-.8 4.1-.6 5.5 1.4 5.5 1.4z"/><path class="st1" d="M50.6 14.3c-.9 0-1.8.2-2.5.5v13.6c.6.2 1.4.4 2.2.4 3.3 0 4.8-2.9 4.8-7.4-.1-4.5-1.6-7.1-4.5-7.1zm-.5 17.1c-2.5 0-4.8-.6-6.2-1.4V3.4h4.3v9.1c1-.5 2.3-.7 3.6-.7 4.6 0 7.6 3.6 7.6 9.3-.1 6.3-3.4 10.3-9.3 10.3zm20.4-17.1c-2.7 0-4.1 2.6-4.1 6.3v.4l7.8-1.2c0-3.5-1.1-5.5-3.7-5.5zm-3.8 8.8c.3 3.3 2.2 5.3 5.3 5.3 1.7 0 3.6-.5 4.7-1.1l1 2.7c-1.5.8-3.9 1.4-6.3 1.4-5.7 0-8.9-4-8.9-9.9s3-9.8 8.2-9.8c4.9 0 7.7 3.2 7.7 9.2v.6l-11.7 1.6zm26.2 8v-13c0-2.5-1-3.7-3.6-3.7-1.1 0-2 .1-2.8.5v16.2h-4.3v-18c2-.8 4.4-1.4 7.1-1.4 5.5 0 7.9 2.3 7.9 6.4v13h-4.3zm9 0v-19h4.3v19h-4.3zm2.2-22.3c-1.3 0-2.4-1-2.4-2.1 0-1.2 1.1-2.2 2.4-2.2 1.3 0 2.4 1 2.4 2.2 0 1.2-1.1 2.1-2.4 2.1zm12.2 6v16.3H112V14.8h-2.1v-2.7h2.1V9.8c0-3.9 2.3-6.4 6.3-6.4.5 0 .7 0 1.1.1v2.7h-.4c-1.9 0-2.7 1.3-2.7 3.5v2.4h3.1v2.7h-3.1zm13.1 23.8h-4.5l3.2-7.6-6.4-19h4.6l3.3 12.5c.2.8.4 1.7.4 2.7h.1c.1-.9.3-1.8.5-2.7l3.5-12.5h4.1l-8.8 26.6z"/></svg>