<svg id="Layer_1" xmlns="http://www.w3.org/2000/svg" xmlns:xlink="http://www.w3.org/1999/xlink" viewBox="0 0 157.6 30.6"><style>.st0,.st1{fill:#fff}.st1{clip-path:url(#SVGID_2_)}</style><path class="st0" d="M38.9 10.3l-.1-1.6h-4.3V24h4.6v-8.4c0-2.3 1.5-2.8 3.6-2.8V8.2c-2.6 0-3.4 1.4-3.8 2.1zm42.7 0l-.1-1.6h-4.3V24h4.6v-8.4c0-2.3 1.5-2.8 3.6-2.8V8.2c-2.7 0-3.5 1.4-3.8 2.1z"/><defs><path id="SVGID_1_" d="M0 0h157.6v30.6H0z"/></defs><clipPath id="SVGID_2_"><use xlink:href="#SVGID_1_" overflow="visible"/></clipPath><path class="st1" d="M56.6 9.5c-.8-.7-2.5-1.3-3.9-1.3-2.7 0-3.7 1.4-4.2 2.2h-.1V8.7h-4.3V24h4.6v-8.3c0-.9 0-3.2 2.6-3.2 2.4 0 2.4 2.1 2.4 3.2V24h4.6v-9.6c0-3-.9-4.2-1.7-4.9zm89.5 5.1c.2-.9 1.1-2.6 3.5-2.6s3.3 1.7 3.5 2.6h-7zm11.5 1.9c0-4.7-3.4-8.4-8.1-8.4-4.7 0-8 3.9-8 8.2 0 4.5 3.7 8.1 8.1 8.1 1.6 0 3.1-.5 4.4-1.4 1.3-.9 2.4-2.2 3.1-3.9h-4.7c-.6.8-1.4 1.4-2.8 1.4-1.8 0-3.3-1.1-3.6-2.9h11.5c0-.3.1-.5.1-1.1z"/><path class="st0" d="M138.3 9.5c-.8-.7-2.5-1.3-3.9-1.3-2.7 0-3.7 1.4-4.2 2.2h-.1V8.7h-4.3V24h4.6v-8.3c0-.9 0-3.2 2.6-3.2 2.4 0 2.4 2.1 2.4 3.2V24h4.6v-9.6c.1-3-.8-4.2-1.7-4.9zm-32.5-4.8l-4.6 2.7v1.3H99v3.4h2.2V24h4.6V12.1h2.2V8.7h-2.2v-4zM93 14.5c-1.2-.4-2.3-.8-2.3-1.6 0-.4.3-1 1.3-1 1.3 0 1.4.8 1.4 1.2h4.5C97.5 9 94 8.2 92 8.2c-3.2 0-5.9 2-5.9 5 0 2.1 1.6 3.4 3.6 4 2.9 1.1 4 1.3 4 2.4 0 .7-.8 1.2-1.6 1.2-.2 0-1.5 0-1.7-1.4h-4.5c.4 4 3.9 5.1 6.2 5.1 3.4 0 6.2-2 6.2-5.2 0-3.3-2.7-4.1-5.3-4.8zm23.3 5.7c-2 0-3.7-1.6-3.7-3.9 0-2.2 1.7-3.9 3.7-3.9s3.7 1.6 3.7 3.9c0 2.2-1.7 3.9-3.7 3.9zm0-12c-5.6 0-8.3 4.4-8.3 8.1 0 3.8 2.7 8.1 8.3 8.1 5.6 0 8.3-4.4 8.3-8.1-.1-3.8-2.7-8.1-8.3-8.1zm-52 6.4c.2-.9 1.1-2.6 3.5-2.6s3.3 1.7 3.5 2.6h-7zm11.5 1.9c0-4.7-3.4-8.4-8.1-8.4-4.7 0-8 3.9-8 8.2 0 4.5 3.7 8.1 8.1 8.1 1.6 0 3.1-.5 4.4-1.4 1.3-.9 2.4-2.2 3.1-3.9h-4.7c-.6.8-1.4 1.4-2.8 1.4-1.8 0-3.3-1.1-3.6-2.9h11.5c.1-.3.1-.5.1-1.1zM25 20.2c-2 0-3.7-1.6-3.7-3.9 0-2.2 1.7-3.9 3.7-3.9s3.7 1.6 3.7 3.9c-.1 2.2-1.7 3.9-3.7 3.9zm0-12c-2.4 0-4.3.8-5.7 2.1V0L0 11.2v19.4L11.3 24c-3.4-1-5.7-4.1-5.7-7.8 0-4.5 3.5-8.1 8-8.1 2.2 0 4.2.8 5.7 2.1 1.2 1.1 2.1 2.6 2.4 4.2h-4.6c-.5-1-1.4-2.1-3.3-2.1-2.2-.1-3.6 1.7-3.6 3.9s1.4 3.9 3.6 3.9c1.9 0 2.8-1.1 3.3-2h4.6c-.4 1.6-1.2 3.1-2.5 4.2 1.4 1.3 3.3 2.2 5.7 2.2 5.6 0 8.2-4.4 8.2-8.1.1-3.8-2.6-8.2-8.1-8.2z"/></svg>