<svg id="Layer_1" xmlns="http://www.w3.org/2000/svg" viewBox="0 0 266.6 32.1"><style>.st0,.st1{fill:#fff}.st1{fill-rule:evenodd;clip-rule:evenodd}</style><path class="st0" d="M154.6 8.8c-2.4 0-4 1.7-4 4.2 0 2.7 2.6 5.4 5.7 8.4l1.8 1.8 1.8-1.8c3.1-3 5.7-5.7 5.7-8.4 0-2.5-1.6-4.2-4-4.2-1 0-2 .4-2.7 1.2l-.8.8-.8-.8c-.7-.8-1.7-1.2-2.7-1.2m3.5 17.5l-3.4-3.3c-3.4-3.4-6.3-6.3-6.3-9.9 0-3.7 2.6-6.4 6.2-6.4 1.3 0 2.5.4 3.5 1.1 1-.7 2.2-1.1 3.5-1.1 3.6 0 6.2 2.7 6.2 6.4 0 3.6-2.9 6.6-6.3 10l-3.4 3.2zM138 20.8l.9-1.3c.7.6 1.8 1 2.7 1 .7 0 1.3-.3 1.3-.8s-.4-.8-1.5-.9c-1.5-.3-3.1-.6-3.1-2.5 0-1.6 1.3-2.5 3-2.5 1.6 0 2.6.4 3.4 1.1l-.9 1.3c-.8-.5-1.6-.9-2.3-.9-.7 0-1.1.3-1.1.7 0 .5.4.7 1.4.8 1.5.3 3.2.6 3.2 2.4 0 1.9-1.7 2.6-3.5 2.6-1.6.2-2.7-.3-3.5-1zm-5.5 1.1V14h2.4v1.3c.4-.7 1.2-1.5 2.7-1.5h.1v2.1h-.6c-.9 0-1.6.5-2.1 1.1v4.9h-2.5zm-3.7-3.9c0-1.3-.5-2.4-1.6-2.4s-1.7 1-1.7 2.4c0 1.3.4 2.4 1.7 2.4 1.1 0 1.6-1 1.6-2.4zm-5.7 0c0-3.1 2.1-4.1 4-4.1s4 1 4 4.1c0 3-2.1 4.1-4 4.1-1.8-.1-4-1.1-4-4.1zm-5 1.7v-3.9h-1.3V14h1.3v-2.7h2.4V14h2v1.7h-2v3.4c0 .8.2 1.1 1.1 1.1.3 0 .6 0 .8-.1v1.7c-.2 0-1 .1-1.6.1-2.4.1-2.7-.8-2.7-2.2zm-9.3-1.7c0-3.1 2.2-4.1 4-4.1 2.1 0 3 1.1 3.4 2.4l-2 .7c-.3-1-.8-1.3-1.5-1.3-1 0-1.6.8-1.6 2.4 0 1.4.4 2.4 1.5 2.4.6 0 1.2-.3 1.5-1.4l2 .7c-.5 1.2-1.5 2.4-3.6 2.4-1.6-.2-3.7-1.2-3.7-4.2zm-3.6 1.5V18c-1.9.2-2.7.7-2.7 1.4 0 .5.4.8.9.8.9 0 1.4-.3 1.8-.7zm-4.9.4c0-1.8 1.5-2.8 5-3.1v-.2c0-.6-.3-.9-1.1-.9-1 0-1.9.4-2.6 1l-1-1.4c.8-.7 2-1.4 3.9-1.4 2.2 0 3 1.1 3 3.1v3c0 .9.1 1.5.2 1.9h-2.4c-.1-.3-.2-.7-.2-1.1-.7.8-1.6 1.3-2.7 1.3-1.1-.1-2.1-.9-2.1-2.2zm-6.7 2V11h7.2v2H96v2.6h3.4v1.9H96v4.3h-2.4v.1zM85 20.8l.9-1.3c.7.6 1.8 1 2.7 1 .7 0 1.3-.3 1.3-.8s-.4-.8-1.5-.9c-1.5-.3-3.1-.6-3.1-2.5 0-1.6 1.3-2.5 3-2.5 1.6 0 2.6.4 3.4 1.1l-.9 1.3c-.8-.5-1.6-.9-2.3-.9-.7 0-1.1.3-1.1.7 0 .5.4.7 1.4.8 1.5.3 3.2.6 3.2 2.4 0 1.9-1.6 2.6-3.5 2.6-1.5.2-2.7-.3-3.5-1zm-7.8 0l.9-1.3c.7.6 1.8 1 2.7 1 .7 0 1.3-.3 1.3-.8s-.4-.8-1.5-.9c-1.5-.3-3.1-.6-3.1-2.5 0-1.6 1.3-2.5 3-2.5 1.6 0 2.6.4 3.4 1.1l-.9 1.3c-.8-.5-1.6-.9-2.3-.9-.7 0-1.1.3-1.1.7 0 .5.4.7 1.4.8 1.5.3 3.2.6 3.2 2.4 0 1.9-1.6 2.6-3.5 2.6-1.6.2-2.7-.3-3.5-1zm-2.8-3.6c-.1-1.1-.6-1.6-1.5-1.6-.7 0-1.4.5-1.5 1.6h3zM69 18c0-3 2.3-4.1 3.9-4.1s3.6.8 3.6 4.4v.4h-5.2c.1 1.3.8 1.8 1.8 1.8.9 0 1.8-.5 2.3-.9l.9 1.4c-.9.8-2 1.2-3.4 1.2C70.9 22 69 21 69 18zm-8 0c0-3.1 2.2-4.1 3.9-4.1 2.1 0 3 1.1 3.4 2.4l-2 .7c-.3-1-.8-1.3-1.5-1.3-1 0-1.6.8-1.6 2.4 0 1.4.4 2.4 1.5 2.4.6 0 1.2-.3 1.5-1.4l2 .7c-.5 1.2-1.5 2.4-3.5 2.4C63 22 61 21 61 18zm-8.2 0c0-3.1 2.2-4.1 4-4.1 2.1 0 3 1.1 3.4 2.4l-2 .7c-.3-1-.8-1.3-1.5-1.3-1 0-1.6.8-1.6 2.4 0 1.4.4 2.4 1.5 2.4.6 0 1.2-.3 1.5-1.4l2 .7c-.5 1.2-1.5 2.4-3.5 2.4-1.7-.2-3.8-1.2-3.8-4.2zm-8.6 1.8V14h2.4v5c0 .7.3 1.1.9 1.1.6 0 1.2-.3 1.7-.8V14h2.4v7.8h-2.4v-1.2c-.5.6-1.3 1.4-2.7 1.4-1.3 0-2.3-.6-2.3-2.2zm-10.1-.4l1.8-1.1c.6 1.2 1.7 1.9 2.9 1.9 1.1 0 1.9-.4 1.9-1.3 0-.8-.8-1.2-2.2-1.6-1.9-.5-4-1-4-3.3 0-2 1.6-3.3 3.9-3.3 2.2 0 3.6 1.1 4.3 2.2L41 14.2c-.6-.9-1.6-1.5-2.7-1.5-1 0-1.6.4-1.6 1.1 0 .9.8 1.2 2.2 1.6 1.9.5 3.9 1.1 3.9 3.4 0 1.8-1.3 3.3-4.4 3.3-2.1 0-3.5-1.1-4.3-2.7zM23 16.2h1.6c1.5 0 2-.6 2-1.6s-.5-1.6-2-1.6H23v3.2zm-2.4 5.7V11h4c2.3 0 4.4.6 4.4 3.5S26.7 18 24.5 18H23v3.9h-2.4zm-7.5-4.2h2.6L14.4 14l-1.3 3.7zm-3.7 4.2L13.3 11h2.3l3.9 10.9H17l-.8-2.4h-3.7l-.8 2.4H9.4zM0 19.4l1.8-1.1c.6 1.2 1.7 1.9 2.9 1.9 1.1 0 1.9-.4 1.9-1.3 0-.8-.8-1.2-2.2-1.6-1.9-.5-4-1-4-3.3 0-2 1.6-3.3 3.9-3.3 2.2 0 3.6 1.1 4.3 2.2l-1.7 1.3c-.6-.9-1.6-1.5-2.7-1.5-1 0-1.6.4-1.6 1.1 0 .9.8 1.2 2.2 1.6C7 15.9 9 16.5 9 18.8c0 1.8-1.3 3.3-4.4 3.3C2.3 22.1.8 21 0 19.4z"/><path class="st1" d="M225.4 12.3l-2 6.4c.6.2 1.3.4 2 .4s1.4-.1 2-.3l-2-6.5zm15.2-2.1h-1.4v5.2h1.4c1.9 0 3.4-.6 3.4-2.6s-1.5-2.6-3.4-2.6zm.7 9.6h-2.1v6.1h-9.5l-.9-2.9c-1 .3-2.1.5-3.3.5-1.2 0-2.4-.2-3.4-.5l-1 3h-5.8l.6-1.7c-.1.1-.2.1-.2.2-1.4 1.2-3.3 1.8-5.5 1.8h-.3c-2.6 0-5.1-.7-7.2-1.9l2-3.9c2.1 1.3 3.5 1.5 5.3 1.5.9 0 1.6-.2 2.1-.6.3-.3.4-.6.4-1 0-1-1.4-1.5-3.2-2-1.4-.4-3.1-1.1-4.3-2-1.5-1.1-2.2-2.5-2.2-4.5 0-1.4.6-2.7 1.5-3.7 1.4-1.5 3.7-2.3 6.4-2.3 2.3 0 5.2.7 7.2 1.7l-2.2 3.9c-2.3-1.1-3.4-1.2-4.7-1.3-1.9-.1-2.9.6-2.9 1.3 0 .9 1.8 1.7 3.5 2.3 2.6.8 5.9 1.9 6.4 5.1L222.7 6h5.5l5.6 15.2V6h6.4c6.1 0 9 2.2 9 6.9 0 4.3-2.9 6.9-7.9 6.9zM201.7 0v32.1h32.8L266.6 0h-64.9z"/><path class="st0" d="M243.5 29.9v-.7h.5c.3 0 .5.1.5.4 0 .4-.3.4-.6.4h-.4v-.1zm0 .3h.4l.6 1h.4l-.7-1.1c.4 0 .6-.2.6-.7 0-.5-.3-.7-.8-.7h-.9v2.4h.4v-.9zm.5 1.9c1.1 0 2.1-.9 2.1-2.1 0-1.2-1-2.1-2.1-2.1s-2.1.9-2.1 2.1c0 1.2.9 2.1 2.1 2.1zm-1.7-2.1c0-1 .7-1.7 1.7-1.7.9 0 1.7.7 1.7 1.7s-.7 1.7-1.7 1.7c-1 .1-1.7-.7-1.7-1.7z"/></svg>