<svg xmlns="http://www.w3.org/2000/svg" viewBox="0 0 865.7 417.81"><defs><style>.cls-1{fill:#ecf0f1}.cls-2{fill:#213140}.cls-3{fill:#375667;opacity:.4}.cls-4{fill:#d0d3d6}.cls-5{fill:#00a8e2}.cls-6{fill:#fff}.cls-7{fill:#9c0}.cls-8{fill:#e80f42}.cls-9{fill:#00aae4}.cls-10{fill:#30bdee}.cls-11{fill:#030404}.cls-12{fill:#f6ecee}.cls-13{fill:#050605}.cls-14{fill:#e81b44}.cls-15{fill:#f8eef1}.cls-16{fill:#9aca3c}.cls-17{fill:#ececec}</style></defs><title>logo</title><g id="Layer_2" data-name="Layer 2"><g id="Layer_1-2" data-name="Layer 1"><rect class="cls-1" x="229.41" y="162.86" width="73.97" height="133.95" rx="4" ry="4" transform="rotate(-25.58 266.333 229.81)"/><path class="cls-2" transform="rotate(-25.58 265.047 227.109)" d="M234.12 175.15h61.98v103.96h-61.98z"/><path class="cls-3" d="M241.4 180.85l62.02 54.54-32.8-68.53-29.22 13.99z"/><circle class="cls-4" cx="291.45" cy="282.17" r="5.65" transform="rotate(-25.58 291.371 282.139)"/><path class="cls-4" transform="rotate(-25.58 240.025 174.807)" d="M233.08 172.83h14v4h-14z"/><path class="cls-5" d="M492.42 30.16h22.55v22.55h-22.55z"/><path class="cls-6" d="M538.33 34.71h5.06v5.06h-5.06zm-5.93 5.06h-5.93v-5.06h5.93zm-11.86 0h-5.93v-5.06h5.93zm-16.91-5.06h5.06v5.06h-5.06zm5.06-5.93h-5.06v-5.93h5.06zm0-11.86h-5.06V11h5.06zM503.63 0h5.06v5.06h-5.06zm28.77 5.06h-5.93V0h5.93zm-11.86 0h-5.93V0h5.93zM538.33 0h5.06v5.06h-5.06zm5.07 28.78h-5.06v-5.93h5.06zm0-11.86h-5.06V11h5.06z"/><path class="cls-7" d="M29.63 125.27L15.4 131.2l15.79 38 38-15.8L63 138.62a1.64 1.64 0 0 0-.21-.18 1.57 1.57 0 0 0-.22-.14 1.83 1.83 0 0 0-.46-.17h-.9a1.94 1.94 0 0 0-1.48 1.4 6.74 6.74 0 1 1-3.16-7.6 2 2 0 0 0 1.73.11 2.42 2.42 0 0 0 .31-.17l.1-.07.17-.14.1-.1.12-.14.1-.13a.33.33 0 0 0 0-.07 1.68 1.68 0 0 0 .2-.44 2 2 0 0 0 .06-.26 2.24 2.24 0 0 0 0-.27l-6.1-14.85-14.23 5.92a2 2 0 0 1-2.31-2.87 6.74 6.74 0 1 0-7.6 3.16 2 2 0 0 1 .41 3.66z"/><path class="cls-6" d="M810.14 292.74h22.84v5.06h-22.84zm27.18 0h7.61v5.06h-7.61zm-6.6-11.46h34.98v5.06h-34.98z"/><path class="cls-7" d="M673.1 36.99l4 8.47 8.94 1.36-6.47 6.6 1.53 9.32-8-4.4-8 4.4 1.52-9.32-6.47-6.6 8.95-1.36 4-8.47z"/><path class="cls-7" d="M661.88 67.37L664 54.3l-9.08-9.25 12.54-1.91 5.61-11.88 5.61 11.88 12.54 1.91-9.08 9.25 2.14 13.06-11.18-6.16zm11.22-11.89l4.79 2.63-.89-5.57 3.87-3.95-5.35-.81-2.39-5.07-2.39 5.07-5.35.81 3.87 3.95-.91 5.57z"/><path class="cls-6" d="M156.07 103.48h27.66v5.06h-27.66zm10.54-10.19h27.66v5.06h-27.66zm-14.48 0h9.22v5.06h-9.22zm-10.54 10.19h9.22v5.06h-9.22zm532.58 75.49h24.03v5.06h-24.03zm-16.28 0h8.82v5.06h-8.82zm16.28-15.67h24.03v5.06h-24.03zm-16.28 0h8.82v5.06h-8.82zm62.22 193.76c-3.57 0-5.17-3-6.35-5.12-.6-1.1-1.34-2.47-1.9-2.47s-1.3 1.37-1.9 2.47c-1.17 2.16-2.78 5.12-6.34 5.12s-5.18-3-6.35-5.12c-.63-1.16-1.34-2.47-1.9-2.47s-1.3 1.37-1.89 2.47c-1.17 2.16-2.78 5.12-6.34 5.12s-5.18-3-6.35-5.12c-.63-1.16-1.34-2.47-1.9-2.47s-1.27 1.31-1.9 2.47c-1.17 2.16-2.78 5.12-6.35 5.12s-5.18-3-6.35-5.12c-.63-1.16-1.34-2.48-1.9-2.48v-5.06c3.57 0 5.18 3 6.35 5.12.63 1.16 1.34 2.48 1.9 2.48s1.27-1.32 1.9-2.48c1.17-2.16 2.78-5.12 6.35-5.12s5.18 3 6.35 5.12c.63 1.16 1.34 2.47 1.9 2.47s1.3-1.37 1.89-2.47c1.17-2.16 2.78-5.12 6.34-5.12s5.17 3 6.35 5.12c.63 1.16 1.34 2.48 1.9 2.48s1.3-1.37 1.89-2.47c1.17-2.16 2.78-5.12 6.35-5.12s5.17 3 6.35 5.12c.6 1.1 1.34 2.47 1.9 2.47z"/><path class="cls-7" d="M372.59 29.88a2.33 2.33 0 0 1-2.33 2.33h-4.52V41l-11.07-8.75h-14.75a2.33 2.33 0 0 1-2.33-2.33V9.49a2.33 2.33 0 0 1 2.33-2.34h30.34a2.34 2.34 0 0 1 2.33 2.34z"/><path class="cls-6" d="M322.49 59.28V47.83h-2a4.87 4.87 0 0 1-4.85-4.83V22.57a4.87 4.87 0 0 1 4.86-4.87h30.34a4.87 4.87 0 0 1 4.86 4.87V43a4.87 4.87 0 0 1-4.86 4.86H337zm-1.79-16.52h6.85v6.06l7.66-6.06h15.42v-20H320.7zm247.14 75.82a9 9 0 1 1 8.64-9 8.85 8.85 0 0 1-8.64 9zm0-13a4 4 0 1 0 3.8 4 3.89 3.89 0 0 0-3.8-4.01zm34.42-6.32a9 9 0 1 1 8.64-9 8.85 8.85 0 0 1-8.64 9zm0-13a4 4 0 1 0 3.8 4 3.89 3.89 0 0 0-3.8-4zm0 51.63a9 9 0 1 1 8.64-9 8.85 8.85 0 0 1-8.64 9zm0-13a4 4 0 1 0 3.8 4 3.89 3.89 0 0 0-3.8-4z"/><path class="cls-6" d="M594.65 127.62l-22.08-13.33 2.43-4.39 22.07 13.33-2.42 4.39zM575 109.18l-2.43-4.39 22.08-13.32 2.42 4.38L575 109.18z"/><path class="cls-5" d="M266.49 133.45h-2.93a1.82 1.82 0 0 1-1.62-1.17l-.54-1.28a1.84 1.84 0 0 1 .32-2l2.07-2.07a1.22 1.22 0 0 0 0-1.74l-3.19-3.2a1.24 1.24 0 0 0-1.74 0l-2.08 2.01a1.83 1.83 0 0 1-2 .33l-1.32-.55a1.83 1.83 0 0 1-1.17-1.62v-2.92a1.24 1.24 0 0 0-1.23-1.24h-4.52a1.24 1.24 0 0 0-1.24 1.24v2.92a1.83 1.83 0 0 1-1.17 1.62l-1.32.55a1.83 1.83 0 0 1-2-.33l-2.01-2a1.24 1.24 0 0 0-1.74 0l-3.2 3.2a1.22 1.22 0 0 0 0 1.74l2.07 2.07a1.85 1.85 0 0 1 .32 2l-.54 1.32a1.83 1.83 0 0 1-1.62 1.17h-2.93a1.24 1.24 0 0 0-1.23 1.23v4.52a1.24 1.24 0 0 0 1.23 1.23h2.93a1.83 1.83 0 0 1 1.62 1.17l.54 1.32a1.85 1.85 0 0 1-.32 2l-2.06 2.03a1.23 1.23 0 0 0 0 1.74l3.2 3.2a1.24 1.24 0 0 0 1.74 0l2.06-2.07a1.83 1.83 0 0 1 2-.32l1.32.54a1.83 1.83 0 0 1 1.17 1.62v2.92a1.24 1.24 0 0 0 1.24 1.23h4.52a1.24 1.24 0 0 0 1.23-1.23v-2.92a1.83 1.83 0 0 1 1.17-1.62l1.32-.54a1.83 1.83 0 0 1 2 .32l2.07 2.07a1.25 1.25 0 0 0 1.74 0l3.19-3.2a1.23 1.23 0 0 0 0-1.74l-2.07-2.07a1.84 1.84 0 0 1-.32-2l.55-1.32a1.82 1.82 0 0 1 1.62-1.17h2.93a1.23 1.23 0 0 0 1.23-1.23v-4.52a1.24 1.24 0 0 0-1.29-1.24zm-17.67 9.45a6 6 0 1 1 6-6 6 6 0 0 1-6 6z"/><path class="cls-6" d="M729.38 175.78a3.74 3.74 0 0 1-3.69-4v-19.64a3.74 3.74 0 0 1 3.69-4 4.36 4.36 0 0 1 2.19.62l17 9.82a3.77 3.77 0 0 1 0 6.79l-17 9.81a4.37 4.37 0 0 1-2.19.6zm1.37-21.66v15.67l13.56-7.83zM96.8 219.53h36.91v5.06H96.8zm43.95 0h12.3v5.06h-12.3zm18.73 0h6.43v5.06h-6.43z"/><path class="cls-8" d="M255.15 35.53h7.3v5.06h-7.3z"/><path class="cls-8" transform="matrix(.5 -.87 .87 .5 102.01 232.71)" d="M248.86 25.49h7.3v5.06h-7.3z"/><path class="cls-8" transform="rotate(-29.99 240.673 28.455)" d="M238.15 24.8h5.06v7.3h-5.06z"/><path class="cls-8" d="M231.48 36.39h7.3v5.06h-7.3z"/><path class="cls-8" transform="rotate(-60.01 241.402 48.963)" d="M237.77 46.42h7.3v5.06h-7.3z"/><path class="cls-8" transform="rotate(-29.99 253.285 48.518)" d="M250.73 44.87h5.06v7.3h-5.06z"/><path class="cls-6" d="M762.49 225.01h5.06v8h-5.06z"/><path class="cls-6" transform="rotate(-59.99 755.455 234.536)" d="M752.92 230.54h5.06v8h-5.06z"/><path class="cls-6" transform="rotate(-29.99 755.583 245.6)" d="M751.45 243.06h8v5.06h-8z"/><path class="cls-6" d="M762.49 247.12h5.06v8h-5.06z"/><path class="cls-6" transform="rotate(-60 774.627 245.586)" d="M772.06 241.59h5.06v8h-5.06z"/><path class="cls-6" transform="rotate(-29.99 774.73 234.544)" d="M770.6 232h8v5.06h-8z"/><path class="cls-7" d="M827.91 186.24a7.33 7.33 0 0 0-6.27 3.76 7.35 7.35 0 0 0-6.36-3.61c-4.07 0-7.33 3.64-7.27 8.09a8.22 8.22 0 0 0 .39 2.44c.57 2.51 4.7 6.18 8.53 9.15 1.85 1.43 5 3.56 5 3.58a54.23 54.23 0 0 0 4.88-3.68c3.74-3.06 7.76-6.85 8.27-9.38a8.26 8.26 0 0 0 .33-2.46c-.08-4.45-3.41-7.97-7.5-7.89z"/><path class="cls-7" d="M819.37 214.26V211c-1.1-.77-2.79-2-4-2.89-7.42-5.77-9-8.64-9.42-10.48a10.78 10.78 0 0 1-.48-3.09 10.91 10.91 0 0 1 3-7.76 9.48 9.48 0 0 1 6.75-2.89 9.86 9.86 0 0 1 6.33 2.26 9.82 9.82 0 0 1 6.27-2.41h.18c5.37 0 9.8 4.67 9.87 10.4a10.83 10.83 0 0 1-.41 3.1c-.38 1.74-1.81 4.74-9.12 10.72a55.49 55.49 0 0 1-5.13 3.86zm-4-25.33a4.49 4.49 0 0 0-3.23 1.38 5.82 5.82 0 0 0-1.59 4.15 5.71 5.71 0 0 0 .27 1.7l.06.22c.08.36.84 2.45 7.61 7.71 1 .77 2.39 1.76 3.44 2.5.92-.67 2-1.53 3.26-2.55 6.61-5.42 7.32-7.55 7.4-7.92l.06-.22a5.77 5.77 0 0 0 .23-1.7c0-3-2.19-5.4-4.8-5.4a4.82 4.82 0 0 0-4.21 2.48l-2.16 3.72-2.23-3.69a4.81 4.81 0 0 0-4.12-2.38z"/><path class="cls-8" d="M78.12 352.02h24.54v5.06H78.12zm-12.85 0h8.18v5.06h-8.18zM0 338.08h2.53v5.06H0zm71.06 5.07h-4.89v-5.06h4.89zm-9.79 0h-4.89v-5.06h4.89zm-9.79 0h-4.89v-5.06h4.89zm-9.79 0H36.8v-5.06h4.89zm-9.79 0H27v-5.06h4.9zm-9.79 0h-4.89v-5.06h4.89zm-9.79 0H7.43v-5.06h4.89zm63.64-5.07h2.53v5.06h-2.53z"/><path class="cls-5" d="M178.75 398.66l-12.36 7.13-12.36 7.14v-28.54l12.36 7.13 12.36 7.14z"/><path class="cls-7" d="M119.2 363.97h22.55v22.55H119.2z"/><path class="cls-6" d="M165.11 368.52h5.06v5.06h-5.06zm-5.93 5.06h-5.93v-5.06h5.93zm-11.86 0h-5.92v-5.06h5.93zm-16.91-5.06h5.06v5.06h-5.06zm5.06-5.93h-5.06v-5.93h5.06zm0-11.86h-5.06v-5.93h5.06zm-5.06-16.92h5.06v5.06h-5.06zm28.77 5.06h-5.93v-5.06h5.93zm-11.86 0h-5.92v-5.06h5.93zm17.79-5.06h5.06v5.06h-5.06zm5.06 28.78h-5.06v-5.93h5.06zm0-11.86h-5.06v-5.93h5.06z"/><circle class="cls-7" cx="178.12" cy="159.42" r="4.75"/><path class="cls-8" transform="rotate(-45 659.842 263.034)" d="M651.96 260.5h15.79v5.06h-15.79z"/><path class="cls-8" transform="rotate(-45 659.842 263.034)" d="M657.32 255.14h5.06v15.79h-5.06z"/><path class="cls-6" transform="rotate(-45 97.174 271.32)" d="M89.29 268.78h15.79v5.06H89.29z"/><path class="cls-6" transform="rotate(-45 97.198 271.33)" d="M94.65 263.42h5.06v15.79h-5.06z"/><path class="cls-6" transform="rotate(-45 560.382 44.522)" d="M553.36 42h14.04v5.06h-14.04z"/><path class="cls-6" transform="rotate(-45 560.428 44.513)" d="M557.85 37.51h5.06v14.04h-5.06z"/><path class="cls-6" d="M671.58 307.95h4.91v5.06h-4.91z"/><path class="cls-8" d="M59.09 299.28h5.14v5.06h-5.14zm683.04-15.38l-13.29 13.3"/><path class="cls-8" transform="rotate(-45 735.49 290.55)" d="M726.08 288.02h18.8v5.06h-18.8z"/><path class="cls-8" d="M742.13 297.2l-13.29-13.3"/><path class="cls-8" transform="rotate(-45 735.49 290.55)" d="M732.95 281.15h5.06v18.8h-5.06z"/><path class="cls-8" d="M796.78 399.16c-3.28 0-5.63-1.67-6.13-4.36-.8-4.26 3.55-8.8 8-10.92a13.86 13.86 0 0 1 5.79-1.43c3.28 0 5.63 1.67 6.13 4.35.79 4.27-3.55 8.81-8 10.92a13.87 13.87 0 0 1-5.79 1.44zm7.7-11.64a9 9 0 0 0-3.64 1c-3.55 1.67-5.4 4.45-5.22 5.4a2.08 2.08 0 0 0 1.15.23 9 9 0 0 0 3.64-1c3.55-1.67 5.4-4.45 5.22-5.41a2.18 2.18 0 0 0-1.14-.22z"/><path class="cls-8" d="M810.72 387.26h-5.07v-44.03l16.15 6.35v11.82h-5.07v-8.37l-6.01-2.36v36.59zm-40.32-43.37H799v5.06h-28.6zm0 27.07h26.43v5.06H770.4zm0 13.54h14.07v5.06H770.4zm0-27.07H799v5.06h-28.6z"/><g id="_Group_" data-name="&lt;Group&gt;"><g id="_Group_2" data-name="&lt;Group&gt;"><g id="_Group_3" data-name="&lt;Group&gt;"><circle id="_Path_" data-name="&lt;Path&gt;" class="cls-9" cx="299.39" cy="316.66" r="3.92" transform="rotate(-16.91 299.403 316.69)"/><path id="_Path_2" data-name="&lt;Path&gt;" class="cls-9" d="M302.8 318.58a3.92 3.92 0 0 1-.72.92 56.05 56.05 0 0 0 7.36 5.31q1.4-1.13 3-2.16a48.08 48.08 0 0 1-9.64-4.07z"/></g><g id="_Group_4" data-name="&lt;Group&gt;"><circle id="_Path_3" data-name="&lt;Path&gt;" class="cls-9" cx="343.11" cy="303.37" r="3.92" transform="rotate(-16.91 343.118 303.385)"/><path id="_Path_4" data-name="&lt;Path&gt;" class="cls-9" d="M341.34 306.86a3.92 3.92 0 0 0 1.11.37 56.05 56.05 0 0 1-3.16 8.51q-1.79-.16-3.68-.14a48.07 48.07 0 0 0 5.73-8.74z"/></g></g><path id="_Path_5" data-name="&lt;Path&gt;" class="cls-9" d="M346.57 341.4a43.73 43.73 0 0 1-28.89 8.78c3.87 2.62 11.33 8.74 14.32 18.58 4.12 13.55-4.16 15.92 1 30.43s10.69 13.64 12.87 13 2.52-4.93-.14-9.26c-2.46-4 .45-6.44 1.63-7 1.29-.19 5.06.21 5.25 4.91.2 5.07 2.86 8.43 5 7.77s7.26-3 3.47-17.95-12-12.28-16.11-25.83c-2.97-9.83-.16-19.09 1.6-23.43z"/><path id="_Path_6" data-name="&lt;Path&gt;" class="cls-9" d="M323.52 317.5c-14.08 4.28-23.73 14.52-23.24 23.92 4.83 8.09 18.54 11.22 32.62 6.94s23.73-14.52 23.24-23.92c-4.82-8.09-18.53-11.22-32.62-6.94z"/><g id="_Group_5" data-name="&lt;Group&gt;"><path id="_Path_7" data-name="&lt;Path&gt;" class="cls-10" d="M332.36 392.46a9.18 9.18 0 0 0 .81-17.28c.3 6.64-2.61 10.38-1.77 17.52a9.3 9.3 0 0 0 .96-.24z"/><path id="_Path_8" data-name="&lt;Path&gt;" class="cls-10" d="M354.18 378.17c-3.31-3.27-6.8-5.8-9.09-13.13a8.39 8.39 0 0 0 9.09 13.13z"/><path id="_Path_9" data-name="&lt;Path&gt;" class="cls-10" d="M356.91 391.47a6.9 6.9 0 0 0 5.32 4.77 48.18 48.18 0 0 0-1.11-5.61 29.86 29.86 0 0 0-2.28-6.25 6.9 6.9 0 0 0-1.93 7.09z"/><path id="_Path_10" data-name="&lt;Path&gt;" class="cls-10" d="M300.63 337.61a6.81 6.81 0 0 0 6.17-10.43 22 22 0 0 0-6.17 10.43z"/><circle id="_Path_11" data-name="&lt;Path&gt;" class="cls-10" cx="347.28" cy="324.59" r="2.46" transform="rotate(-16.91 347.288 324.599)"/></g><g id="_Group_6" data-name="&lt;Group&gt;"><path id="_Path_12" data-name="&lt;Path&gt;" class="cls-11" d="M307.54 341.53a115.87 115.87 0 0 0 42.67-13s-13.53 31-42.67 13z"/><path id="_Path_13" data-name="&lt;Path&gt;" class="cls-6" d="M315.94 340.38l4 2.13 1.78-3.33 3.27 2.06 1-3.13 3.12 2.07 1.18-3.32 3.15 1.78.71-3.05 3.52 1.54.76-3.13 3 1.83 1.42-3.64h-.08a120.47 120.47 0 0 1-26.83 8.19z"/><path id="_Path_14" data-name="&lt;Path&gt;" class="cls-6" d="M339.62 341.93l-2.72-1.59-.52 3.54-3.06-2-.34 3.77-3-2.74-.53 3.77-3.32-2.6-.94 3a23.89 23.89 0 0 0 14.43-5.15z"/></g><g id="_Group_7" data-name="&lt;Group&gt;"><g id="_Group_8" data-name="&lt;Group&gt;"><circle id="_Path_15" data-name="&lt;Path&gt;" class="cls-12" cx="318.75" cy="330.13" r="7.02" transform="rotate(-16.91 318.752 330.155)"/><circle id="_Path_16" data-name="&lt;Path&gt;" class="cls-9" cx="318.75" cy="330.13" r="5.01" transform="rotate(-16.91 318.752 330.155)"/><circle id="_Path_17" data-name="&lt;Path&gt;" class="cls-13" cx="318.75" cy="330.13" r="3.46" transform="rotate(-16.91 318.752 330.155)"/><path id="_Path_18" data-name="&lt;Path&gt;" class="cls-12" d="M323.08 327.62a5 5 0 0 0-3.88-2.48 2.35 2.35 0 1 0 3.88 2.48z"/></g><g id="_Group_9" data-name="&lt;Group&gt;"><circle id="_Path_19" data-name="&lt;Path&gt;" class="cls-12" cx="334.52" cy="325.33" r="7.02" transform="rotate(-16.91 334.524 325.349)"/><circle id="_Path_20" data-name="&lt;Path&gt;" class="cls-9" cx="334.52" cy="325.33" r="5.01" transform="rotate(-16.91 334.524 325.349)"/><circle id="_Path_21" data-name="&lt;Path&gt;" class="cls-13" cx="334.52" cy="325.33" r="3.46" transform="rotate(-16.91 334.524 325.349)"/><path id="_Path_22" data-name="&lt;Path&gt;" class="cls-12" d="M338.85 322.83a5 5 0 0 0-3.88-2.48 2.35 2.35 0 1 0 3.88 2.48z"/></g></g></g><g id="_Group_10" data-name="&lt;Group&gt;"><path id="_Path_23" data-name="&lt;Path&gt;" class="cls-14" d="M507.36 384.32s4.87 7.36 22.89 12.39c0 0-5.53 11-7.27 14.09s8.11 8.36 11.68 6.69 18.33-18.86 38-62.36c1.67-3.7 5.6-14-3.31-19.91s-28.77-13.57-36.18-16.7-13.91-1.23-20.79 11.21-24.92 53-24.72 61.48c.13 5.38 12.43 8.28 13.7 6s3.35-9.28 6-12.89z"/><g id="_Group_11" data-name="&lt;Group&gt;"><g id="_Group_12" data-name="&lt;Group&gt;"><circle id="_Path_24" data-name="&lt;Path&gt;" class="cls-15" cx="525.28" cy="341.14" r="11.02" transform="rotate(-63 525.264 341.141)"/><circle id="_Path_25" data-name="&lt;Path&gt;" class="cls-14" cx="525.28" cy="341.14" r="7.86" transform="rotate(-63 525.264 341.141)"/><circle id="_Path_26" data-name="&lt;Path&gt;" class="cls-13" cx="525.28" cy="341.14" r="5.44" transform="rotate(-63 525.264 341.141)"/><path id="_Path_27" data-name="&lt;Path&gt;" class="cls-15" d="M532.9 343a7.87 7.87 0 0 0-1.68-7 3.69 3.69 0 1 0 1.68 7z"/></g><g id="_Group_13" data-name="&lt;Group&gt;"><circle id="_Path_28" data-name="&lt;Path&gt;" class="cls-15" cx="551.95" cy="354.73" r="13.43" transform="rotate(-63 551.95 354.734)"/><circle id="_Path_29" data-name="&lt;Path&gt;" class="cls-14" cx="551.95" cy="354.73" r="9.59" transform="rotate(-63 551.95 354.734)"/><circle id="_Path_30" data-name="&lt;Path&gt;" class="cls-13" cx="551.95" cy="354.73" r="6.63" transform="rotate(-63 551.95 354.734)"/><path id="_Path_31" data-name="&lt;Path&gt;" class="cls-15" d="M561.26 357a9.6 9.6 0 0 0-2.05-8.57 4.49 4.49 0 1 0 2.05 8.57z"/></g></g><g id="_Group_14" data-name="&lt;Group&gt;"><path id="_Path_32" data-name="&lt;Path&gt;" class="cls-14" d="M512.51 329.44c2.66-4.74 5.26-7.92 7.88-9.85s-10.6-10.59 4.12-19c0 0-30.54 4.88-12.06 28.81z"/><path id="_Path_33" data-name="&lt;Path&gt;" class="cls-14" d="M586.67 331.58c1.49 13.86-8.23 14.75-11.75 14.62a24.44 24.44 0 0 1-2.3 8.91l-1.44 3.16c29.25.43 15.49-26.69 15.49-26.69z"/></g><g id="_Group_15" data-name="&lt;Group&gt;"><path id="_Path_34" data-name="&lt;Path&gt;" class="cls-13" d="M509.79 353.69s30 18.42 44.42 24.37c0 0-8.66 19.12-22.31 12.93s-23.9-11.14-25.68-17.31c-2.97-10.14 3.57-19.99 3.57-19.99z"/><g id="_Group_16" data-name="&lt;Group&gt;"><path id="_Path_35" data-name="&lt;Path&gt;" class="cls-15" d="M549.2 379.41a3 3 0 0 0 4-1.31 3 3 0 0 0 .15-.39C540 372 514.87 356.79 510.46 354.1c-.07.11-.14.22-.2.34a5.13 5.13 0 0 0 7.37 6.63l-.13.23a5.57 5.57 0 0 0 8.92 6.45 7.66 7.66 0 0 0 12.25 7 5.12 5.12 0 0 0 9.4 3.64 3 3 0 0 0 1.13 1.02z"/><path id="_Path_36" data-name="&lt;Path&gt;" class="cls-15" d="M513.49 374.73c-1.63.06-2.95 2.14-3.82 4a31.76 31.76 0 0 0 4.41 3.3c.7-2.72 1.33-7.37-.59-7.3z"/><path id="_Path_37" data-name="&lt;Path&gt;" class="cls-15" d="M531.89 391a14.74 14.74 0 0 0 1.76.67c1-1.82 2.29-4.49 1.28-6s-4.54 1.72-6.27 3.86z"/></g></g></g><path class="cls-7" d="M364.88 245.94l-59.26-21.29 9.85 20.68L364 271.11l.88-25.17z"/><g id="_Group_17" data-name="&lt;Group&gt;"><path id="_Path_38" data-name="&lt;Path&gt;" class="cls-16" d="M361 403.54a9.26 9.26 0 0 0 7.35 8.07 121.77 121.77 0 0 0 19 1.27 7 7 0 0 0 6.66-7.06c0-1.23.06-2.53.15-3.79.26-3.76 4.24-6.15 8-5.58 11.78 1.8 36.65 5 55.27 3.57 3.76-.3 6.41 2.23 6 6l-.23 1.9a7.2 7.2 0 0 0 5.9 8c6.47 1 16.63 2 26 .92 3.74-.42 6.72-4.24 6.75-8 .22-35.66 1.61-201.69 8.6-271a9.05 9.05 0 0 0-8-10c-23.54-2.34-87.34-7.46-122.9 1.37-4.87 1.21-8.92 6.73-9.2 11.75-2.4 42.04-11.91 218.53-9.35 262.58z"/><g id="_Group_18" data-name="&lt;Group&gt;"><circle id="_Path_39" data-name="&lt;Path&gt;" class="cls-17" cx="405.81" cy="181.14" r="25.34" transform="rotate(-85.92 405.79 181.147)"/><circle id="_Path_40" data-name="&lt;Path&gt;" class="cls-16" cx="405.81" cy="181.14" r="17.83" transform="rotate(-85.92 405.79 181.147)"/><circle id="_Path_41" data-name="&lt;Path&gt;" class="cls-11" cx="405.81" cy="181.14" r="9.2" transform="rotate(-85.92 405.79 181.147)"/><ellipse id="_Path_42" data-name="&lt;Path&gt;" class="cls-17" cx="398.96" cy="176.18" rx="10.13" ry="7.94" transform="rotate(-53.26 398.93 176.184)"/></g><g id="_Group_19" data-name="&lt;Group&gt;"><circle id="_Path_43" data-name="&lt;Path&gt;" class="cls-17" cx="467.32" cy="183.27" r="25.34" transform="rotate(-85.92 467.299 183.275)"/><circle id="_Path_44" data-name="&lt;Path&gt;" class="cls-16" cx="467.32" cy="183.27" r="17.83" transform="rotate(-85.92 467.299 183.275)"/><circle id="_Path_45" data-name="&lt;Path&gt;" class="cls-11" cx="467.32" cy="183.27" r="9.2" transform="rotate(-85.92 467.299 183.275)"/><ellipse id="_Path_46" data-name="&lt;Path&gt;" class="cls-17" cx="460.48" cy="178.32" rx="10.13" ry="7.94" transform="rotate(-53.26 460.44 178.324)"/></g><path id="_Path_47" data-name="&lt;Path&gt;" class="cls-11" d="M411.43 225.63s27.6-2.11 50.58 7.22c0 0 3.67 100.27-28.08 98s-22.5-105.22-22.5-105.22z"/><path id="_Path_48" data-name="&lt;Path&gt;" class="cls-17" d="M422.47 249.83l12.27-.26 1.64-23a145.8 145.8 0 0 0-15.16-1.08z"/><path id="_Path_49" data-name="&lt;Path&gt;" class="cls-16" d="M370.08 144.64h-.06s-55.72 4.76-58.78 47.66c-2.37 33.22 21 35.69 21 35.69s-24.14-46 35.87-46.66c.8-15.25 1.48-27.95 1.97-36.69z"/><path id="_Path_50" data-name="&lt;Path&gt;" class="cls-16" d="M509.64 146.08c-.92 10.66-1.73 23-2.44 36.5 54.34 10.3 25.25 50.63 25.25 50.63s23.49.87 25.86-32.35c2.69-37.1-37.69-51.55-48.67-54.78z"/></g><rect class="cls-7" x="220.04" y="173.3" width="10.7" height="32.09" rx="2.01" ry="2.01" transform="rotate(124.38 225.389 189.346)"/><rect class="cls-7" x="211.48" y="198.98" width="10.7" height="32.09" rx="2.01" ry="2.01" transform="rotate(67.75 216.83 215.023)"/><rect class="cls-7" x="221.11" y="210.74" width="10.7" height="32.09" rx="2.01" ry="2.01" transform="rotate(60 226.453 226.787)"/></g></g></svg>