<svg xmlns="http://www.w3.org/2000/svg" viewBox="0 0 295.83 128.98"><defs><style>.cls-1{fill:#fff}</style></defs><title>Asset 3</title><g id="Layer_2" data-name="Layer 2"><g id="Layer_1-2" data-name="Layer 1"><path class="cls-1" d="M104.71 80.17a1.78 1.78 0 1 1-3.56 0V48.06a1.77 1.77 0 0 1 1.78-1.78h10.42c5.6 0 10 3.25 10 10.21s-4.3 10.27-10 10.27h-8.64zm0-16.66h8.12c4.24 0 6.91-2.46 6.91-7s-2.72-7-6.91-7h-8.12zm27.51-2.2c1-2.41 3.67-4.19 7.28-4.19a1.62 1.62 0 0 1 0 3.25c-4.82 0-7.28 3.35-7.28 8.17v11.73a1.68 1.68 0 0 1-3.35 0V59a1.68 1.68 0 0 1 3.35 0zM154.27 57c8.38 0 10 6.65 10 10.21 0 1.52 0 3.35-2.1 3.35h-15.28c0 5.19 3 8.54 7.91 8.54a9.65 9.65 0 0 0 6.29-2.25 1.46 1.46 0 0 1 .94-.31 1.52 1.52 0 0 1 1.52 1.52 1.57 1.57 0 0 1-.58 1.21 11.67 11.67 0 0 1-8.17 2.93c-7 0-11.31-3.82-11.31-12.62-.01-8.06 3.97-12.58 10.78-12.58zm0 3c-4.56 0-7.07 2.93-7.39 7.59H161c0-3.71-1.33-7.54-6.73-7.54zm31.28.42V45.91a1.68 1.68 0 1 1 3.35 0v26c0 6.91-4.29 10.32-10.27 10.32-6.76 0-10.74-4-10.74-12.62S171.67 57 178.42 57a8.88 8.88 0 0 1 7.13 3.42zm0 4.24s-2-4.61-6.91-4.61c-4.77 0-7.39 3.09-7.39 9.53s2.57 9.59 7.39 9.59c4 0 6.91-2.31 6.91-7.28zm9.8-14.25c0-1.52.73-2.09 2-2.09s2 .58 2 2.09a2 2 0 0 1-4 0zM199 80.27a1.68 1.68 0 1 1-3.35 0V59a1.68 1.68 0 1 1 3.35 0zM215 57a9.86 9.86 0 0 1 8.07 3.61 1.56 1.56 0 0 1 .37 1 1.49 1.49 0 0 1-1.44 1.53 1.56 1.56 0 0 1-1.26-.63 6.7 6.7 0 0 0-5.74-2.46c-4.82 0-7.39 3.09-7.39 9.53s2.57 9.59 7.39 9.59a9.55 9.55 0 0 0 6.08-2.25 1.56 1.56 0 0 1 1-.37 1.52 1.52 0 0 1 1.52 1.52 1.63 1.63 0 0 1-.68 1.31 11.94 11.94 0 0 1-7.92 2.83c-6.76 0-10.79-4-10.79-12.62S208.29 57 215 57zm15.24-4.75a1.72 1.72 0 0 1 1.68-1.68 1.69 1.69 0 0 1 1.68 1.68v5.5h3.4a1.57 1.57 0 1 1 0 3.14h-3.4v14.46c0 2.25 1.26 3.46 3 3.46a1.57 1.57 0 1 1 0 3.14c-4.14 0-6.39-2.78-6.39-6.6V60.89h-2a1.57 1.57 0 0 1 0-3.14h2zm12.94-1.84c0-1.52.73-2.09 2-2.09s2 .58 2 2.09a2 2 0 1 1-4 0zm3.67 29.86a1.68 1.68 0 1 1-3.35 0V59a1.68 1.68 0 1 1 3.35 0zm13.31.63l-8.9-21.16a1.92 1.92 0 0 1-.16-.73 1.65 1.65 0 0 1 1.68-1.68 1.59 1.59 0 0 1 1.57 1.1l7.39 18.07 7.39-18.07a1.59 1.59 0 0 1 1.57-1.1 1.65 1.65 0 0 1 1.66 1.67 1.92 1.92 0 0 1-.16.73l-8.9 21.17a1.7 1.7 0 0 1-3.14 0zM285.83 57c8.38 0 10 6.65 10 10.21 0 1.52 0 3.35-2.09 3.35h-15.3c0 5.19 3 8.54 7.91 8.54a9.65 9.65 0 0 0 6.29-2.25 1.46 1.46 0 0 1 .94-.31 1.52 1.52 0 0 1 1.52 1.52 1.57 1.57 0 0 1-.58 1.21 11.67 11.67 0 0 1-8.17 2.93c-7 0-11.31-3.82-11.31-12.62C275 61.52 279 57 285.83 57zm0 3c-4.56 0-7.07 2.93-7.39 7.59h14.09c0-3.71-1.31-7.54-6.7-7.54zm-181.12 49.2v15.09a1.78 1.78 0 0 1-3.56 0V91.75a1.78 1.78 0 1 1 3.56 0v14.19h18.23V91.75a1.78 1.78 0 1 1 3.56 0v32.53a1.78 1.78 0 0 1-3.56 0V109.2zm29.03-14.67c0-1.52.73-2.09 2-2.09s2 .58 2 2.09a2 2 0 0 1-4 0zm3.67 29.86a1.68 1.68 0 0 1-3.35 0v-21.27a1.68 1.68 0 0 1 3.35 0zm10.16-18.97c1-2.41 3.67-4.19 7.28-4.19a1.62 1.62 0 0 1 0 3.25c-4.82 0-7.28 3.35-7.28 8.17v11.73a1.68 1.68 0 0 1-3.35 0v-21.26a1.68 1.68 0 0 1 3.35 0zm22.05-4.29c8.38 0 10 6.65 10 10.21 0 1.52 0 3.35-2.1 3.35h-15.28c0 5.19 3 8.54 7.91 8.54a9.65 9.65 0 0 0 6.29-2.25 1.46 1.46 0 0 1 .94-.31 1.52 1.52 0 0 1 1.52 1.52 1.57 1.57 0 0 1-.58 1.21 11.67 11.67 0 0 1-8.17 2.93c-7 0-11.31-3.82-11.31-12.62-.01-8.08 3.97-12.58 10.78-12.58zm0 3c-4.56 0-7.07 2.93-7.39 7.59h14.09c.01-3.72-1.32-7.55-6.7-7.55zM41.2 128.19c-.65-.14-1.34-.3-2.06-.5.64.19 1.34.31 2.06.5zM54.68 77c0-8-4.75-12.16-12.06-12.16H28.45v24.37h14.17c7.38 0 12.06-4.29 12.06-12.21z"/><path class="cls-1" d="M76.47 88.06C75 86.23 73.25 84 73.28 83.4a10.33 10.33 0 0 1 .92-3.12 18 18 0 0 0 1.5-5.52 31.77 31.77 0 0 0-1.14-10.68C72.9 58 69.12 52.66 63 47.6c-4.34-3.6-13.7-8.33-25.34-8.33a43.59 43.59 0 0 0-17.43 3.67C3.36 50.23.67 66.82.3 70.07c-.8 7.07-.05 13.38 2.5 21.1 1.64 5 6.56 12.84 10 17.78a60.34 60.34 0 0 0 5.54 6l-.37-.38-.08-.06-1.6-1.68c.56.62 1.12 1.16 1.68 1.74.57.35 3.85 2 4.18-1.72v-50.6a3.08 3.08 0 0 1 3.11-3.11h18.27C53.31 59.14 61 64.81 61 77c0 12-7.5 17.92-17.46 17.92H28.45v17.39h.05s0 .22-.07.58v2.34a14 14 0 0 0 1.69 5.82l.18.32c2.32 3.81 7.28 7.39 17.75 7.39h.78-.26L63 129c3.07.07 5.25.2 6.88-1.56 3.35-3.6 2.41-7.41 2-9.56a5.41 5.41 0 0 1-.18-1.33c.06-.39.32-.53.95-.76a2.1 2.1 0 0 0 1.55-1.38 2.89 2.89 0 0 0-.39-2.08c-.22-.45-.35-.73-.26-1a4.08 4.08 0 0 1 .69-1c.6-.74 1.28-1.57.89-2.44a10.68 10.68 0 0 1-.49-3.3l.1-1.14a1.63 1.63 0 0 1 .06-.22 7.06 7.06 0 0 1 2-.82c2.08-.66 4.68-1.49 5.38-3.43.92-2.48-2.6-6.98-5.71-10.92zM65.34 12.78c0-2.06-.07-3.73-.13-5.26h2.63l.16 2.77a6.33 6.33 0 0 1 5.73-3.13c3.9 0 6.82 3.3 6.82 8.19 0 5.79-3.53 8.66-7.32 8.66a5.65 5.65 0 0 1-5-2.53h-.07v8.76h-2.9zm2.9 4.29a6.6 6.6 0 0 0 .13 1.2 4.52 4.52 0 0 0 4.39 3.43c3.1 0 4.89-2.53 4.89-6.23 0-3.23-1.7-6-4.79-6a4.67 4.67 0 0 0-4.43 3.63 4.75 4.75 0 0 0-.2 1.2zm30.63-1.62c0 6-4.13 8.56-8 8.56-4.36 0-7.72-3.2-7.72-8.29 0-5.39 3.53-8.56 8-8.56 4.59 0 7.72 3.36 7.72 8.29zm-12.78.17c0 3.53 2 6.19 4.89 6.19s4.89-2.63 4.89-6.26c0-2.73-1.36-6.19-4.83-6.19s-4.95 3.19-4.95 6.25zm17.41-8.1l2.13 8.19c.47 1.8.9 3.46 1.2 5.13h.1c.37-1.63.9-3.36 1.43-5.09L111 7.52h2.46l2.5 8.06c.6 1.93 1.07 3.63 1.43 5.26h.1a48.45 48.45 0 0 1 1.23-5.23L121 7.52h2.9l-5.19 16.11h-2.66l-2.46-7.69a53.7 53.7 0 0 1-1.43-5.29h-.07a47.68 47.68 0 0 1-1.46 5.35L108 23.64h-2.66l-4.83-16.12zm24.64 8.59c.07 4 2.6 5.59 5.53 5.59a10.59 10.59 0 0 0 4.46-.83l.5 2.1a13 13 0 0 1-5.36 1c-5 0-7.92-3.26-7.92-8.12s2.86-8.69 7.56-8.69c5.26 0 6.66 4.63 6.66 7.59a10.93 10.93 0 0 1-.1 1.36zm8.59-2.1c0-1.86-.77-4.76-4.06-4.76-3 0-4.26 2.73-4.49 4.76zm6.47-1.46c0-1.9 0-3.53-.13-5h2.56l.1 3.16h.13a4.83 4.83 0 0 1 4.46-3.53 3.17 3.17 0 0 1 .83.1V10a4.41 4.41 0 0 0-1-.1c-2.06 0-3.53 1.56-3.93 3.76a8.25 8.25 0 0 0-.13 1.36v8.59h-2.9zm12.18 3.56c.07 4 2.6 5.59 5.53 5.59a10.59 10.59 0 0 0 4.46-.83l.5 2.1a13 13 0 0 1-5.36 1c-5 0-7.92-3.26-7.92-8.12s2.86-8.69 7.56-8.69c5.26 0 6.66 4.63 6.66 7.59a10.93 10.93 0 0 1-.1 1.36zM164 14c0-1.86-.77-4.76-4.06-4.76-3 0-4.26 2.73-4.49 4.76zm20.35-14v19.48c0 1.43 0 3.06.13 4.16h-2.63l-.13-2.8h-.07a6 6 0 0 1-5.49 3.16c-3.9 0-6.89-3.3-6.89-8.19 0-5.36 3.3-8.66 7.22-8.66a5.39 5.39 0 0 1 4.86 2.46h.07V0zm-2.93 14.08a5.13 5.13 0 0 0-.13-1.23 4.31 4.31 0 0 0-4.23-3.4c-3 0-4.83 2.66-4.83 6.23 0 3.26 1.6 6 4.76 6a4.4 4.4 0 0 0 4.29-3.5 5.05 5.05 0 0 0 .13-1.27zm14.72 9.56c.07-1.1.13-2.73.13-4.16V0h2.9v10.12h.07a6 6 0 0 1 5.49-3c4 0 6.82 3.33 6.79 8.22 0 5.76-3.63 8.62-7.23 8.62a5.74 5.74 0 0 1-5.39-3h-.1l-.13 2.66zm3-6.46a5.49 5.49 0 0 0 .13 1.07 4.52 4.52 0 0 0 4.39 3.43c3.06 0 4.89-2.5 4.89-6.19 0-3.23-1.67-6-4.79-6a4.67 4.67 0 0 0-4.46 3.6 5.88 5.88 0 0 0-.17 1.2zm16.91-9.66l3.53 9.48c.37 1.07.77 2.33 1 3.3h.07c.3-1 .63-2.2 1-3.36l3.2-9.46H228L223.61 19c-2.1 5.53-3.53 8.36-5.53 10.09a7.94 7.94 0 0 1-3.6 1.9l-.73-2.46a7.77 7.77 0 0 0 2.56-1.43 8.88 8.88 0 0 0 2.46-3.26 2.11 2.11 0 0 0 .23-.7 2.55 2.55 0 0 0-.2-.77l-6-14.85z"/></g></g></svg>